<svg width="1000" height="1000" viewBox="0 0 1000 1000" fill="none" xmlns="http://www.w3.org/2000/svg">
<g clip-path="url(#clip0_127_2)">
<path d="M354.41 616.977C354.41 643.783 347.652 669.237 334.137 693.34C320.621 717.217 299.559 736.59 270.951 751.457C242.568 766.324 205.851 773.758 160.799 773.758C138.273 773.758 118.45 772.744 101.33 770.717C84.4355 768.689 68.6673 765.423 54.0254 760.918C39.3835 756.188 24.1784 750.105 8.41016 742.672V623.734C35.2161 637.25 62.2474 647.612 89.5039 654.82C116.76 661.803 141.426 665.295 163.502 665.295C176.792 665.295 187.605 663.718 195.939 660.564C204.499 657.411 210.807 653.131 214.861 647.725C218.916 642.093 220.943 635.673 220.943 628.465C220.943 619.905 217.902 612.697 211.82 606.84C205.964 600.758 196.503 594.451 183.438 587.918C170.372 581.385 153.14 573.276 131.74 563.59C113.494 555.03 96.9375 546.245 82.0703 537.234C67.4284 528.224 54.8138 517.975 44.2266 506.486C33.8646 494.773 25.8678 481.145 20.2363 465.602C14.6048 450.059 11.7891 431.7 11.7891 410.525C11.7891 378.764 19.5605 352.183 35.1035 330.783C50.8717 309.158 72.722 292.939 100.654 282.127C128.812 271.314 161.249 265.908 197.967 265.908C230.179 265.908 259.125 269.512 284.805 276.721C310.71 283.929 333.911 292.151 354.41 301.387L313.525 404.443C292.351 394.757 271.514 387.098 251.016 381.467C230.517 375.61 211.482 372.682 193.912 372.682C182.424 372.682 172.963 374.146 165.529 377.074C158.321 379.777 152.915 383.494 149.311 388.225C145.932 392.955 144.242 398.361 144.242 404.443C144.242 412.102 147.171 418.973 153.027 425.055C159.109 431.137 169.133 437.782 183.1 444.99C197.291 451.973 216.551 461.096 240.879 472.359C264.982 483.172 285.48 494.885 302.375 507.5C319.27 519.889 332.109 534.869 340.895 552.439C349.905 569.785 354.41 591.297 354.41 616.977ZM825.119 767H674.42L576.769 578.119L537.236 601.771V767H403.093V273.004H537.236V487.564C542.868 476.752 549.287 465.939 556.496 455.127C563.929 444.314 571.138 434.065 578.121 424.379L681.853 273.004H827.822L672.054 494.322L825.119 767ZM854.515 710.91C854.515 687.033 861.498 670.251 875.465 660.564C889.656 650.878 906.663 646.035 926.486 646.035C945.183 646.035 961.401 650.878 975.142 660.564C988.883 670.251 995.754 687.033 995.754 710.91C995.754 733.661 988.883 750.105 975.142 760.242C961.401 770.379 945.183 775.447 926.486 775.447C906.663 775.447 889.656 770.379 875.465 760.242C861.498 750.105 854.515 733.661 854.515 710.91Z" fill="#120808"/>
<path d="M334.137 693.34L347.191 700.729L347.205 700.703L347.22 700.676L334.137 693.34ZM270.951 751.457L264.034 738.147L264.013 738.158L263.991 738.17L270.951 751.457ZM101.33 770.717L99.5429 785.61L99.5545 785.611L99.5661 785.613L101.33 770.717ZM54.0254 760.918L49.4139 775.192L49.5138 775.224L49.6141 775.255L54.0254 760.918ZM8.41016 742.672H-6.58984V752.184L2.01387 756.24L8.41016 742.672ZM8.41016 623.734L15.1633 610.341L-6.58984 599.373V623.734H8.41016ZM89.5039 654.82L85.6688 669.322L85.7249 669.337L85.7812 669.351L89.5039 654.82ZM195.939 660.564L190.754 646.489L190.692 646.512L190.631 646.535L195.939 660.564ZM214.861 647.725L226.861 656.725L226.949 656.608L227.034 656.489L214.861 647.725ZM211.82 606.84L201.016 617.244L201.212 617.448L201.416 617.645L211.82 606.84ZM183.438 587.918L176.729 601.334L183.438 587.918ZM131.74 563.59L125.369 577.17L125.462 577.213L125.555 577.255L131.74 563.59ZM82.0703 537.234L74.2089 550.009L74.2522 550.036L74.2958 550.062L82.0703 537.234ZM44.2266 506.486L32.9916 516.425L33.0928 516.539L33.1962 516.652L44.2266 506.486ZM35.1035 330.783L22.9834 321.946L22.9752 321.957L22.967 321.968L35.1035 330.783ZM100.654 282.127L95.2771 268.124L95.2582 268.131L95.2394 268.138L100.654 282.127ZM284.805 276.721L280.751 291.163L280.767 291.167L280.784 291.172L284.805 276.721ZM354.41 301.387L368.353 306.918L373.638 293.597L360.572 287.711L354.41 301.387ZM313.525 404.443L307.286 418.084L321.645 424.653L327.468 409.975L313.525 404.443ZM251.016 381.467L246.895 395.89L246.968 395.911L247.042 395.931L251.016 381.467ZM165.529 377.074L170.796 391.119L170.912 391.076L171.027 391.03L165.529 377.074ZM149.311 388.225L137.379 379.134L137.239 379.318L137.105 379.506L149.311 388.225ZM153.027 425.055L142.223 435.459L142.321 435.561L142.421 435.661L153.027 425.055ZM183.1 444.99L176.22 458.32L176.348 458.386L176.477 458.449L183.1 444.99ZM240.879 472.359L234.577 485.971L234.658 486.009L234.739 486.045L240.879 472.359ZM302.375 507.5L293.401 519.519L293.452 519.558L293.505 519.596L302.375 507.5ZM340.895 552.439L327.478 559.148L327.53 559.251L327.583 559.354L340.895 552.439ZM339.41 616.977C339.41 641.132 333.353 664.069 321.053 686.003L347.22 700.676C361.952 674.405 369.41 646.433 369.41 616.977H339.41ZM321.083 685.951C309.232 706.887 290.526 724.38 264.034 738.147L277.868 764.767C308.592 748.8 332.01 727.548 347.191 700.729L321.083 685.951ZM263.991 738.17C238.449 751.549 204.353 758.758 160.799 758.758V788.758C207.349 788.758 246.688 781.1 277.911 764.745L263.991 738.17ZM160.799 758.758C138.695 758.758 119.483 757.762 103.094 755.821L99.5661 785.613C117.417 787.727 137.851 788.758 160.799 788.758V758.758ZM103.117 755.824C87.0159 753.891 72.1343 750.796 58.4367 746.581L49.6141 775.255C65.2004 780.05 81.8552 783.487 99.5429 785.61L103.117 755.824ZM58.6368 746.644C44.6781 742.135 30.0701 736.3 14.8064 729.104L2.01387 756.24C18.2867 763.911 34.0888 770.24 49.4139 775.192L58.6368 746.644ZM23.4102 742.672V623.734H-6.58984V742.672H23.4102ZM1.65697 637.128C29.3346 651.083 57.3409 661.83 85.6688 669.322L93.339 640.319C67.1539 633.394 41.0977 623.417 15.1633 610.341L1.65697 637.128ZM85.7812 669.351C113.939 676.565 139.883 680.295 163.502 680.295V650.295C142.97 650.295 119.582 647.042 93.2266 640.29L85.7812 669.351ZM163.502 680.295C177.801 680.295 190.599 678.623 201.248 674.594L190.631 646.535C184.611 648.813 175.784 650.295 163.502 650.295V680.295ZM201.125 674.64C211.474 670.827 220.563 665.122 226.861 656.725L202.861 638.725C201.05 641.139 197.524 643.995 190.754 646.489L201.125 674.64ZM227.034 656.489C233.002 648.201 235.943 638.689 235.943 628.465H205.943C205.943 632.658 204.83 635.985 202.688 638.96L227.034 656.489ZM235.943 628.465C235.943 615.892 231.289 604.763 222.225 596.035L201.416 617.645C204.516 620.63 205.943 623.918 205.943 628.465H235.943ZM222.625 596.435C215.024 588.542 203.793 581.325 190.146 574.502L176.729 601.334C189.213 607.576 196.903 612.974 201.016 617.244L222.625 596.435ZM190.146 574.502C176.837 567.847 159.41 559.649 137.926 549.925L125.555 577.255C146.87 586.903 163.908 594.924 176.729 601.334L190.146 574.502ZM138.111 550.01C120.272 541.641 104.193 533.102 89.8448 524.406L74.2958 550.062C89.6819 559.387 106.716 568.419 125.369 577.17L138.111 550.01ZM89.9318 524.46C76.3444 516.098 64.8242 506.703 55.2569 496.321L33.1962 516.652C44.8034 529.247 58.5123 540.35 74.2089 550.009L89.9318 524.46ZM55.4615 496.548C46.4214 486.328 39.3645 474.362 34.3392 460.492L6.13347 470.711C12.3712 487.927 21.3078 503.217 32.9916 516.425L55.4615 496.548ZM34.3392 460.492C29.4415 446.974 26.7891 430.423 26.7891 410.525H-3.21094C-3.21094 432.976 -0.231897 453.143 6.13347 470.711L34.3392 460.492ZM26.7891 410.525C26.7891 381.279 33.9077 357.954 47.2401 339.598L22.967 321.968C5.21336 346.412 -3.21094 376.248 -3.21094 410.525H26.7891ZM47.2236 339.621C61.0999 320.591 80.4896 306.017 106.069 296.115L95.2394 268.138C64.9544 279.862 40.6436 297.726 22.9834 321.946L47.2236 339.621ZM106.031 296.13C132.145 286.103 162.7 280.908 197.967 280.908V250.908C159.799 250.908 125.479 256.526 95.2771 268.124L106.031 296.13ZM197.967 280.908C229.082 280.908 256.631 284.392 280.751 291.163L288.859 262.279C261.619 254.633 231.276 250.908 197.967 250.908V280.908ZM280.784 291.172C306.093 298.214 328.561 306.193 348.248 315.063L360.572 287.711C339.262 278.109 315.326 269.644 288.826 262.27L280.784 291.172ZM340.467 295.855L299.583 398.912L327.468 409.975L368.353 306.918L340.467 295.855ZM319.765 390.803C297.927 380.813 276.334 372.867 254.989 367.003L247.042 395.931C266.695 401.33 286.775 408.701 307.286 418.084L319.765 390.803ZM255.136 367.044C233.572 360.883 213.136 357.682 193.912 357.682V387.682C209.829 387.682 227.461 390.337 246.895 395.89L255.136 367.044ZM193.912 357.682C181.298 357.682 169.804 359.268 160.031 363.118L171.027 391.03C176.122 389.023 183.55 387.682 193.912 387.682V357.682ZM160.262 363.029C151.177 366.436 143.13 371.585 137.379 379.134L161.242 397.315C162.699 395.403 165.465 393.118 170.796 391.119L160.262 363.029ZM137.105 379.506C131.821 386.903 129.242 395.389 129.242 404.443H159.242C159.242 401.334 160.042 399.007 161.517 396.943L137.105 379.506ZM129.242 404.443C129.242 416.396 133.975 426.895 142.223 435.459L163.832 414.65C160.366 411.051 159.242 407.809 159.242 404.443H129.242ZM142.421 435.661C150.153 443.394 161.817 450.886 176.22 458.32L189.979 431.661C176.45 424.678 168.065 418.88 163.634 414.448L142.421 435.661ZM176.477 458.449C190.822 465.508 210.204 474.688 234.577 485.971L247.181 458.747C222.898 447.505 203.76 438.439 189.722 431.531L176.477 458.449ZM234.739 486.045C258.079 496.516 277.576 507.703 293.401 519.519L311.349 495.481C293.385 482.068 271.884 469.828 247.018 458.673L234.739 486.045ZM293.505 519.596C308.608 530.672 319.829 543.85 327.478 559.148L354.311 545.731C344.39 525.888 329.931 509.106 311.245 495.404L293.505 519.596ZM327.583 559.354C335.191 573.999 339.41 592.976 339.41 616.977H369.41C369.41 589.618 364.619 565.57 354.206 545.525L327.583 559.354ZM825.119 767V782H850.741L838.199 759.658L825.119 767ZM674.42 767L661.095 773.889L665.288 782H674.42V767ZM576.769 578.119L590.094 571.23L582.764 557.053L569.068 565.247L576.769 578.119ZM537.236 601.771L529.535 588.899L522.236 593.266V601.771H537.236ZM537.236 767V782H552.236V767H537.236ZM403.093 767H388.093V782H403.093V767ZM403.093 273.004V258.004H388.093V273.004H403.093ZM537.236 273.004H552.236V258.004H537.236V273.004ZM537.236 487.564H522.236L550.54 494.493L537.236 487.564ZM556.496 455.127L544.135 446.629L544.074 446.717L544.015 446.806L556.496 455.127ZM578.121 424.379L590.288 433.151L590.393 433.006L590.494 432.858L578.121 424.379ZM681.853 273.004V258.004H673.948L669.48 264.525L681.853 273.004ZM827.822 273.004L840.088 281.637L856.722 258.004H827.822V273.004ZM672.054 494.322L659.788 485.689L654.346 493.42L658.974 501.665L672.054 494.322ZM825.119 752H674.42V782H825.119V752ZM687.744 760.111L590.094 571.23L563.445 585.008L661.095 773.889L687.744 760.111ZM569.068 565.247L529.535 588.899L544.937 614.644L584.47 590.991L569.068 565.247ZM522.236 601.771V767H552.236V601.771H522.236ZM537.236 752H403.093V782H537.236V752ZM418.093 767V273.004H388.093V767H418.093ZM403.093 288.004H537.236V258.004H403.093V288.004ZM522.236 273.004V487.564H552.236V273.004H522.236ZM550.54 494.493C555.906 484.189 562.048 473.84 568.977 463.447L544.015 446.806C536.527 458.038 529.829 469.315 523.932 480.635L550.54 494.493ZM568.856 463.625C576.233 452.896 583.377 442.738 590.288 433.151L565.953 415.607C558.899 425.392 551.626 435.733 544.135 446.629L568.856 463.625ZM590.494 432.858L694.227 281.483L669.48 264.525L565.747 415.9L590.494 432.858ZM681.853 288.004H827.822V258.004H681.853V288.004ZM815.556 264.371L659.788 485.689L684.321 502.956L840.088 281.637L815.556 264.371ZM658.974 501.665L812.039 774.342L838.199 759.658L685.135 486.98L658.974 501.665ZM875.465 660.564L867.008 648.175L866.962 648.207L866.916 648.239L875.465 660.564ZM875.465 760.242L866.654 772.382L866.7 772.415L866.746 772.448L875.465 760.242ZM869.515 710.91C869.515 689.802 875.579 678.739 884.013 672.89L866.916 648.239C847.417 661.762 839.515 684.263 839.515 710.91H869.515ZM883.921 672.954C895.253 665.219 909.203 661.035 926.486 661.035V631.035C904.124 631.035 884.059 636.537 867.008 648.175L883.921 672.954ZM926.486 661.035C942.451 661.035 955.569 665.119 966.5 672.825L983.785 648.304C967.234 636.637 947.915 631.035 926.486 631.035V661.035ZM966.5 672.825C974.746 678.637 980.754 689.714 980.754 710.91H1010.75C1010.75 684.351 1003.02 661.864 983.785 648.304L966.5 672.825ZM980.754 710.91C980.754 730.621 974.943 741.749 966.238 748.171L984.047 772.313C1002.82 758.462 1010.75 736.702 1010.75 710.91H980.754ZM966.238 748.171C955.323 756.223 942.299 760.447 926.486 760.447V790.447C948.067 790.447 967.48 784.534 984.047 772.313L966.238 748.171ZM926.486 760.447C909.345 760.447 895.492 756.114 884.183 748.036L866.746 772.448C883.82 784.644 903.981 790.447 926.486 790.447V760.447ZM884.275 748.103C875.379 741.646 869.515 730.533 869.515 710.91H839.515C839.515 736.79 847.618 758.565 866.654 772.382L884.275 748.103Z" fill="white"/>
</g>
<defs>
<clipPath id="clip0_127_2">
<rect width="1000" height="1000" fill="white"/>
</clipPath>
</defs>
</svg>
