<svg width="1555" height="222" viewBox="0 0 1555 222" fill="none" xmlns="http://www.w3.org/2000/svg">
<path d="M80 221.3C62.6 221.3 47.6 218.5 35 212.9C22.6 207.1 11.2 198.4 0.8 186.8L31.4 156.5C38.2 164.3 45.7 170.4 53.9 174.8C62.3 179 72 181.1 83 181.1C93 181.1 100.7 179.3 106.1 175.7C111.7 172.1 114.5 167.1 114.5 160.7C114.5 154.9 112.7 150.2 109.1 146.6C105.5 143 100.7 139.9 94.7 137.3C88.9 134.7 82.4 132.2 75.2 129.8C68.2 127.4 61.2 124.7 54.2 121.7C47.2 118.5 40.7 114.6 34.7 110C28.9 105.2 24.2 99.3 20.6 92.3C17 85.1 15.2 76.1 15.2 65.3C15.2 52.3 18.3 41.1 24.5 31.7C30.9 22.3 39.7 15.2 50.9 10.4C62.1 5.4 75 2.9 89.6 2.9C104.4 2.9 117.9 5.49999 130.1 10.7C142.5 15.9 152.7 23 160.7 32L130.1 62.3C123.7 55.7 117.2 50.8 110.6 47.6C104.2 44.4 96.9 42.8 88.7 42.8C80.5 42.8 74 44.4 69.2 47.6C64.4 50.6 62 55 62 60.8C62 66.2 63.8 70.6 67.4 74C71 77.2 75.7 80 81.5 82.4C87.5 84.8 94 87.2 101 89.6C108.2 92 115.3 94.8 122.3 98C129.3 101.2 135.7 105.3 141.5 110.3C147.5 115.1 152.3 121.3 155.9 128.9C159.5 136.3 161.3 145.5 161.3 156.5C161.3 176.7 154.1 192.6 139.7 204.2C125.3 215.6 105.4 221.3 80 221.3ZM274.402 218V134.9C274.402 127.3 272.002 121.2 267.202 116.6C262.602 111.8 256.702 109.4 249.502 109.4C244.502 109.4 240.102 110.5 236.302 112.7C232.502 114.7 229.502 117.7 227.302 121.7C225.102 125.5 224.002 129.9 224.002 134.9L206.302 126.2C206.302 114.8 208.702 104.8 213.502 96.2C218.302 87.6 225.002 81 233.602 76.4C242.202 71.6 252.102 69.2 263.302 69.2C274.702 69.2 284.702 71.6 293.302 76.4C301.902 81 308.502 87.5 313.102 95.9C317.902 104.1 320.302 113.7 320.302 124.7V218H274.402ZM178.102 218V0.199997H224.002V218H178.102ZM405.582 221.3C392.182 221.3 380.282 218.6 369.882 213.2C359.682 207.6 351.682 200 345.882 190.4C340.082 180.6 337.182 169.4 337.182 156.8V72.2H383.082V156.2C383.082 161.2 383.882 165.5 385.482 169.1C387.282 172.7 389.882 175.5 393.282 177.5C396.682 179.5 400.782 180.5 405.582 180.5C412.382 180.5 417.782 178.4 421.782 174.2C425.782 169.8 427.782 163.8 427.782 156.2V72.2H473.682V156.5C473.682 169.3 470.782 180.6 464.982 190.4C459.182 200 451.182 207.6 440.982 213.2C430.782 218.6 418.982 221.3 405.582 221.3ZM577.501 221C567.701 221 558.701 219 550.501 215C542.301 210.8 535.601 205.3 530.401 198.5C525.201 191.5 522.201 183.7 521.401 175.1V113.6C522.201 105 525.201 97.4 530.401 90.8C535.601 84 542.301 78.7 550.501 74.9C558.701 71.1 567.701 69.2 577.501 69.2C591.301 69.2 603.501 72.5 614.101 79.1C624.901 85.7 633.301 94.7 639.301 106.1C645.501 117.5 648.601 130.5 648.601 145.1C648.601 159.7 645.501 172.7 639.301 184.1C633.301 195.5 624.901 204.5 614.101 211.1C603.501 217.7 591.301 221 577.501 221ZM569.401 179.6C575.801 179.6 581.401 178.1 586.201 175.1C591.201 172.1 595.101 168 597.901 162.8C600.701 157.6 602.101 151.7 602.101 145.1C602.101 138.3 600.701 132.3 597.901 127.1C595.101 121.9 591.201 117.9 586.201 115.1C581.401 112.1 575.801 110.6 569.401 110.6C563.001 110.6 557.301 112.1 552.301 115.1C547.301 117.9 543.401 121.9 540.601 127.1C538.001 132.3 536.701 138.3 536.701 145.1C536.701 151.9 538.101 157.9 540.901 163.1C543.701 168.3 547.501 172.4 552.301 175.4C557.301 178.2 563.001 179.6 569.401 179.6ZM493.501 218V0.199997H539.401V107.9L531.901 143.3L538.801 178.7V218H493.501ZM759.219 218V134.9C759.219 127.3 756.819 121.2 752.019 116.6C747.419 111.8 741.519 109.4 734.319 109.4C729.319 109.4 724.919 110.5 721.119 112.7C717.319 114.7 714.319 117.7 712.119 121.7C709.919 125.5 708.819 129.9 708.819 134.9L691.119 126.2C691.119 114.8 693.519 104.8 698.319 96.2C703.119 87.6 709.819 81 718.419 76.4C727.019 71.6 736.919 69.2 748.119 69.2C759.519 69.2 769.519 71.6 778.119 76.4C786.719 81 793.319 87.5 797.919 95.9C802.719 104.1 805.119 113.7 805.119 124.7V218H759.219ZM662.919 218V0.199997H708.819V218H662.919ZM886.498 221C873.098 221 861.098 217.7 850.498 211.1C840.098 204.5 831.798 195.5 825.598 184.1C819.598 172.7 816.598 159.7 816.598 145.1C816.598 130.5 819.598 117.5 825.598 106.1C831.798 94.7 840.098 85.7 850.498 79.1C861.098 72.5 873.098 69.2 886.498 69.2C896.298 69.2 905.098 71.1 912.898 74.9C920.898 78.7 927.398 84 932.398 90.8C937.398 97.4 940.198 105 940.798 113.6V176.6C940.198 185.2 937.398 192.9 932.398 199.7C927.598 206.3 921.198 211.5 913.198 215.3C905.198 219.1 896.298 221 886.498 221ZM895.798 179.6C905.598 179.6 913.498 176.4 919.498 170C925.498 163.4 928.498 155.1 928.498 145.1C928.498 138.3 927.098 132.3 924.298 127.1C921.698 121.9 917.898 117.9 912.898 115.1C908.098 112.1 902.498 110.6 896.098 110.6C889.698 110.6 883.998 112.1 878.998 115.1C874.198 117.9 870.298 121.9 867.298 127.1C864.498 132.3 863.098 138.3 863.098 145.1C863.098 151.7 864.498 157.6 867.298 162.8C870.098 168 873.998 172.1 878.998 175.1C883.998 178.1 889.598 179.6 895.798 179.6ZM926.698 218V178.7L933.598 143.3L926.698 107.9V72.2H971.698V218H926.698ZM995.016 218V72.2H1040.92V218H995.016ZM1088.32 218V132.8C1088.32 125.4 1086.02 119.7 1081.42 115.7C1077.02 111.5 1071.52 109.4 1064.92 109.4C1060.32 109.4 1056.22 110.4 1052.62 112.4C1049.02 114.2 1046.12 116.8 1043.92 120.2C1041.92 123.6 1040.92 127.8 1040.92 132.8L1023.22 125C1023.22 113.4 1025.72 103.5 1030.72 95.3C1035.72 86.9 1042.52 80.5 1051.12 76.1C1059.72 71.5 1069.42 69.2 1080.22 69.2C1090.42 69.2 1099.52 71.5 1107.52 76.1C1115.72 80.7 1122.22 87.1 1127.02 95.3C1131.82 103.5 1134.22 113.3 1134.22 124.7V218H1088.32ZM1181.62 218V132.8C1181.62 125.4 1179.32 119.7 1174.72 115.7C1170.32 111.5 1164.82 109.4 1158.22 109.4C1153.62 109.4 1149.52 110.4 1145.92 112.4C1142.32 114.2 1139.42 116.8 1137.22 120.2C1135.22 123.6 1134.22 127.8 1134.22 132.8L1107.82 129.2C1108.22 116.8 1111.12 106.2 1116.52 97.4C1122.12 88.4 1129.42 81.5 1138.42 76.7C1147.62 71.7 1157.92 69.2 1169.32 69.2C1180.52 69.2 1190.42 71.6 1199.02 76.4C1207.82 81 1214.72 87.7 1219.72 96.5C1224.92 105.1 1227.52 115.5 1227.52 127.7V218H1181.62ZM1428.36 218L1342.56 107.6L1425.66 6.19999H1483.86L1390.26 116.3V97.1L1486.86 218H1428.36ZM1300.26 218V6.19999H1347.36V218H1300.26ZM1527.38 221.3C1519.58 221.3 1513.08 218.6 1507.88 213.2C1502.68 207.8 1500.08 201.3 1500.08 193.7C1500.08 185.7 1502.68 179.1 1507.88 173.9C1513.08 168.5 1519.58 165.8 1527.38 165.8C1535.38 165.8 1541.88 168.5 1546.88 173.9C1552.08 179.1 1554.68 185.7 1554.68 193.7C1554.68 201.3 1552.08 207.8 1546.88 213.2C1541.88 218.6 1535.38 221.3 1527.38 221.3Z" fill="#120808"/>
</svg>
